<?xml version="1.0" encoding="UTF-8" standalone="no"?>
<!-- Uploaded to: SVG Repo, www.svgrepo.com, Generator: SVG Repo Mixer Tools -->

<svg
   fill="#000000"
   width="800px"
   height="800px"
   viewBox="-1 0 19 19"
   class="cf-icon-svg"
   version="1.1"
   id="svg1"
   sodipodi:docname="web-round.svg"
   inkscape:version="1.3.2 (091e20e, 2023-11-25, custom)"
   xmlns:inkscape="http://www.inkscape.org/namespaces/inkscape"
   xmlns:sodipodi="http://sodipodi.sourceforge.net/DTD/sodipodi-0.dtd"
   xmlns="http://www.w3.org/2000/svg"
   xmlns:svg="http://www.w3.org/2000/svg">
  <defs
     id="defs1" />
  <sodipodi:namedview
     id="namedview1"
     pagecolor="#ffffff"
     bordercolor="#000000"
     borderopacity="0.25"
     inkscape:showpageshadow="2"
     inkscape:pageopacity="0.0"
     inkscape:pagecheckerboard="0"
     inkscape:deskcolor="#d1d1d1"
     inkscape:zoom="0.40084116"
     inkscape:cx="123.49031"
     inkscape:cy="508.92978"
     inkscape:window-width="1854"
     inkscape:window-height="1057"
     inkscape:window-x="1978"
     inkscape:window-y="-8"
     inkscape:window-maximized="1"
     inkscape:current-layer="svg1" />
  <path
     d="M 17.999238,9.5001219 A 9.4986189,9.5000413 0 1 1 8.5006192,8.1040938e-5 9.4986189,9.5000413 0 0 1 17.999238,9.5001219 Z m -3.526362,0.00718 A 5.9722566,5.9731509 0 1 0 8.5006192,15.480399 5.9722566,5.9731509 0 0 0 14.472876,9.507247 Z M 5.706838,9.0322454 H 3.5007837 A 5.0307059,5.0314593 0 0 1 6.5462784,4.8783523 Q 6.665011,4.8284776 6.7837438,4.7845392 A 9.1447954,9.1461647 0 0 0 5.706838,9.0322454 Z m 0,0.9500041 A 9.1424207,9.1437897 0 0 0 6.7849311,14.229956 Q 6.6638239,14.186019 6.5462784,14.136142 A 5.0164582,5.0172093 0 0 1 3.5007837,9.9822495 Z M 6.6566998,9.0322454 A 10.73344,10.735047 0 0 1 6.8502342,7.3673631 7.3186858,7.3197817 0 0 1 7.3785949,5.6870432 c 0.3431375,-0.7303156 0.783636,-1.2029427 1.1220243,-1.2029427 0.3383883,0 0.7788868,0.4726271 1.1220243,1.2029427 a 7.3376831,7.3387818 0 0 1 0.5283615,1.6803199 10.778559,10.780172 0 0 1 0.193533,1.6648823 z m 3.6878382,0.9500041 a 10.772622,10.774235 0 0 1 -0.193533,1.6648825 7.3459944,7.3470944 0 0 1 -0.5283615,1.680319 c -0.3431375,0.731504 -0.783636,1.202944 -1.1220243,1.202944 -0.3383883,0 -0.7788868,-0.47144 -1.1220243,-1.202944 A 7.3281846,7.3292818 0 0 1 6.8502342,11.647132 10.728691,10.730296 0 0 1 6.6566998,9.9822495 Z m 1.707376,-4.0268301 a 4.9998355,5.0005842 0 0 1 1.448541,3.076826 h -2.206054 a 9.140046,9.1414147 0 0 0 -1.078093,-4.247706 q 0.121106,0.043937 0.238653,0.095 a 4.9962735,4.9970217 0 0 1 1.596953,1.07588 z m -0.757513,4.0268301 h 2.206054 a 5.0318934,5.0326468 0 0 1 -3.045494,4.1538925 q -0.118734,0.05106 -0.237466,0.095 a 9.1388587,9.1402273 0 0 0 1.076906,-4.2488925 z"
     id="path1"
     style="stroke-width:0.999998" />
</svg>
